<svg width="24" height="24" viewBox="0 0 24 24" fill="none" xmlns="http://www.w3.org/2000/svg">
<path d="M11.9906 1.78833C6.19453 1.78599 1.5 6.47818 1.5 12.2696C1.5 16.8493 4.43672 20.7422 8.52656 22.1719C9.07734 22.3102 8.99297 21.9188 8.99297 21.6516V19.8352C5.8125 20.2079 5.68359 18.1032 5.47031 17.7516C5.03906 17.0157 4.01953 16.8282 4.32422 16.4766C5.04844 16.104 5.78672 16.5704 6.64219 17.8336C7.26094 18.7501 8.46797 18.5954 9.07969 18.443C9.21328 17.8922 9.49922 17.4 9.89297 17.018C6.59766 16.4274 5.22422 14.4165 5.22422 12.0258C5.22422 10.8657 5.60625 9.79927 6.35625 8.93911C5.87812 7.52114 6.40078 6.30708 6.47109 6.12661C7.83281 6.00474 9.24844 7.10161 9.35859 7.18833C10.132 6.97974 11.0156 6.86958 12.0047 6.86958C12.9984 6.86958 13.8844 6.98442 14.6648 7.19536C14.9297 6.9938 16.2422 6.05161 17.5078 6.16646C17.5758 6.34692 18.0867 7.53286 17.6367 8.93208C18.3961 9.79458 18.7828 10.8704 18.7828 12.0329C18.7828 14.4282 17.4 16.4415 14.0953 17.0227C14.3784 17.3011 14.6031 17.633 14.7564 17.9992C14.9098 18.3654 14.9886 18.7585 14.9883 19.1555V21.7922C15.007 22.0032 14.9883 22.2118 15.3398 22.2118C19.4906 20.8126 22.4789 16.8915 22.4789 12.2719C22.4789 6.47817 17.782 1.78833 11.9906 1.78833V1.78833Z" fill="#403387"/>
</svg>
