<svg width="24" height="24" viewBox="0 0 24 24" fill="none" xmlns="http://www.w3.org/2000/svg">
<path d="M22.0617 6.93984C21.9422 6.49462 21.7078 6.0886 21.382 5.76243C21.0563 5.43625 20.6505 5.20136 20.2055 5.08125C18.5672 4.64063 12 4.64062 12 4.64062C12 4.64062 5.43281 4.64062 3.79453 5.07891C3.34927 5.19862 2.94334 5.43339 2.61751 5.75962C2.29169 6.08586 2.05744 6.49208 1.93828 6.9375C1.5 8.57812 1.5 12 1.5 12C1.5 12 1.5 15.4219 1.93828 17.0602C2.17969 17.9648 2.89219 18.6773 3.79453 18.9188C5.43281 19.3594 12 19.3594 12 19.3594C12 19.3594 18.5672 19.3594 20.2055 18.9188C21.1102 18.6773 21.8203 17.9648 22.0617 17.0602C22.5 15.4219 22.5 12 22.5 12C22.5 12 22.5 8.57813 22.0617 6.93984ZM9.91406 15.1406V8.85938L15.3516 11.9766L9.91406 15.1406Z" fill="#403387"/>
</svg>
